P3
# Paypal favicon, converted by IrfanView
24 32
255
254 237 139 254 237 139 254 237 139 254 237 139 203 200 131 59 93
109 16 62 103 16 62 103 16 62 103 16 62 103 16 62 103 16 62 103 16
62 103 16 62 103 26 69 105 57 92 109 106 128 116 182 184 128 254 237
139 254 237 139 254 237 139 254 237 139 254 237 139 254 237 139 254
237 139 254 237 139 254 237 139 247 232 138 117 136 118 2 51 101 0
50 101 0 50 101 0 50 101 0 50 101 0 50 101 0 50 101 0 50 101 0 50
101 0 50 101 0 50 101 0 50 101 0 50 101 96 121 115 222 213 134 254
237 139 254 237 139 254 237 139 254 237 139 254 237 139 254 237 139
254 237 139 234 223 136 88 115 114 0 50 101 0 50 101 0 50 101 0 50
101 0 50 101 0 50 101 0 50 101 0 50 101 0 50 101 0 50 101 0 50 101 0
50 101 0 50 101 1 50 101 77 105 112 228 218 135 254 237 139 254 237
139 254 237 139 254 237 139 254 237 139 254 237 139 221 212 134 60
94 110 0 50 101 0 50 101 0 50 101 0 50 101 0 50 101 0 50 101 0 50
101 0 50 101 0 50 101 0 50 101 0 50 101 0 50 101 0 50 101 0 50 101 2
48 99 164 174 157 254 237 139 254 237 139 254 237 139 254 237 139
254 237 139 254 237 139 207 202 132 33 74 106 0 50 101 0 50 101 0 50
101 0 50 101 0 47 99 0 41 94 0 40 94 0 40 93 0 41 94 0 48 100 0 50
101 0 50 101 0 50 101 0 50 101 0 46 98 44 84 126 228 225 172 252 235
139 254 237 139 254 237 139 254 237 139 254 237 139 182 184 127 11
58 102 0 50 101 0 50 101 0 50 101 0 49 100 31 74 119 133 157 182 155
175 195 141 163 186 82 116 151 12 54 105 0 49 100 0 50 101 0 50 101
0 50 101 0 49 101 2 50 101 170 189 202 182 190 150 250 234 139 254
237 139 254 237 139 254 237 139 145 157 122 0 50 101 0 50 101 0 50
101 0 50 101 0 42 95 160 179 198 255 255 255 255 255 255 255 255 255
253 253 254 165 182 200 1 46 98 0 50 101 0 50 101 0 50 101 0 50 101
0 43 97 198 211 223 125 156 175 211 208 139 254 237 139 254 237 139
254 237 139 104 127 116 0 50 101 0 50 101 0 50 101 0 49 100 2 50 101
224 230 237 255 255 255 255 255 255 255 255 255 255 255 255 255 255
255 44 84 127 0 46 98 0 50 101 0 50 101 0 50 101 0 42 94 220 227 235
120 154 188 144 164 144 254 237 139 254 237 139 254 237 139 62 95
109 0 50 101 0 50 101 0 50 101 0 47 99 25 70 116 248 250 251 255 255
255 255 255 255 255 255 255 255 255 255 255 255 255 80 113 148 0 45
97 0 50 101 0 50 101 0 50 101 0 42 95 231 236 242 128 159 192 88 126
148 254 237 139 254 237 139 247 232 138 26 69 104 0 50 101 0 50 101
0 50 101 0 46 99 61 98 137 255 255 255 255 255 255 255 255 255 255
255 255 255 255 255 255 255 255 68 103 141 0 45 97 0 50 101 0 50 101
0 50 101 1 43 96 236 240 245 127 159 191 61 108 149 254 237 139 254
237 139 221 212 134 2 51 101 0 50 101 0 50 101 0 50 101 0 48 100 99
129 160 255 255 255 255 255 255 255 255 255 255 255 255 255 255 255
251 252 253 27 71 116 0 47 99 0 50 101 0 50 101 0 49 100 4 52 102
240 244 248 120 154 188 57 105 149 254 237 139 254 237 139 181 183
128 0 50 101 0 50 101 0 50 101 0 50 101 0 48 100 147 168 190 255 255
255 255 255 255 255 255 255 255 255 255 255 255 255 167 185 203 0 43
96 0 50 101 0 50 101 0 50 101 0 47 99 29 72 118 229 235 242 99 138
177 56 105 149 254 237 139 254 237 139 139 152 121 0 50 101 0 50 101
0 50 101 0 50 101 10 57 107 187 201 214 255 255 255 255 255 255 255
255 255 253 253 254 192 204 217 37 76 121 0 48 100 0 50 101 0 50 101
0 50 101 0 43 96 104 130 161 218 227 236 73 118 163 61 108 149 254
237 139 253 236 139 100 123 116 0 50 101 0 50 101 0 50 101 0 50 101
3 50 102 116 143 170 228 233 239 218 225 233 192 205 218 107 136 165
22 62 110 0 46 98 0 50 101 0 50 101 0 50 101 0 48 99 19 61 109 193
206 218 181 200 218 50 102 152 84 123 149 254 237 139 239 226 137 64
96 110 0 50 101 0 50 101 0 50 101 0 50 101 0 49 101 0 47 99 15 62
110 10 58 107 1 47 98 0 39 93 0 47 99 0 50 101 0 50 101 0 50 101 0
50 101 3 46 98 107 134 165 242 244 247 97 137 176 45 97 150 124 151
147 254 237 139 215 208 133 44 82 107 0 50 101 0 50 101 0 50 101 0
50 101 0 50 101 0 49 100 0 47 98 0 48 99 0 49 101 0 50 101 0 50 101
0 50 101 0 50 101 0 50 101 0 41 94 61 97 136 222 229 236 192 208 224
44 97 149 53 103 152 180 187 143 254 237 139 187 188 129 30 72 105 0
50 101 0 50 101 0 50 101 0 50 101 0 50 101 0 50 101 0 50 101 0 50
101 0 50 101 0 50 101 0 50 101 0 50 101 0 47 99 0 41 94 47 83 126
224 231 236 219 228 237 83 126 169 47 99 151 94 130 149 225 218 141
254 237 139 160 168 125 16 62 103 0 50 101 0 50 101 0 50 101 0 50
101 0 50 101 0 50 101 0 50 101 0 50 101 0 50 101 0 49 100 0 45 97 0
39 93 12 54 104 102 130 161 230 235 240 229 235 242 98 137 176 46 98
150 61 108 151 167 179 144 251 235 139 250 234 138 129 145 120 5 54
102 0 50 101 0 50 101 0 50 101 0 49 101 0 43 96 0 39 92 0 38 92 0 40
93 0 40 94 4 50 101 33 75 120 98 127 159 209 218 227 255 255 255 207
220 232 77 121 166 43 96 149 50 101 152 125 150 146 241 228 140 254
237 139 239 226 137 96 121 115 0 50 101 0 50 101 0 50 101 0 50 101 3
49 101 76 111 147 175 192 207 208 217 226 218 225 232 230 234 239
244 246 247 253 253 253 255 255 255 220 229 238 125 157 190 55 105
155 43 97 149 50 101 152 105 137 148 244 230 139 254 237 139 254 237
139 225 216 135 69 101 111 0 50 101 0 50 101 0 50 101 0 49 100 45 82
125 214 222 231 242 245 249 195 212 227 197 213 228 189 207 224 164
187 212 128 160 192 85 128 170 47 99 151 40 94 147 47 99 151 62 109
151 144 163 145 238 226 140 254 237 139 254 237 139 254 237 139 211
205 132 41 80 107 0 50 101 0 50 101 0 50 101 0 46 98 89 122 156 226
234 241 89 131 172 40 93 146 41 94 147 39 93 146 37 91 145 39 93 147
43 96 149 50 101 151 70 114 150 122 148 147 214 210 141 254 237 139
254 237 139 254 237 139 254 237 139 254 237 139 192 191 129 17 63
103 0 50 101 0 50 101 0 50 101 0 42 95 127 152 178 179 198 217 53
103 153 55 104 152 97 132 148 129 153 146 130 154 146 141 161 146
161 175 144 202 202 142 236 225 139 253 236 139 254 237 139 254 237
139 254 237 139 254 237 139 254 237 139 254 237 139 157 165 124 1 51
101 0 50 101 0 50 101 0 50 101 0 41 94 170 187 204 160 184 208 52
102 153 114 143 147 241 228 140 254 237 139 254 237 139 254 237 139
254 237 139 254 237 139 254 237 139 254 237 139 254 237 139 254 237
139 254 237 139 254 237 139 254 237 139 254 237 139 118 136 118 0 50
101 0 50 101 0 50 101 0 50 101 0 47 99 210 219 229 134 164 195 49
100 152 173 182 144 254 237 139 254 237 139 254 237 139 254 237 139
254 237 139 254 237 139 254 237 139 254 237 139 254 237 139 254 237
139 254 237 139 254 237 139 254 237 139 254 237 139 76 106 112 0 50
101 0 50 101 0 50 101 0 48 99 17 63 111 228 234 241 104 141 180 47
99 151 207 206 141 254 237 139 254 237 139 254 237 139 254 237 139
254 237 139 254 237 139 254 237 139 254 237 139 254 237 139 254 237
139 254 237 139 254 237 139 254 237 139 254 237 139 36 76 106 0 50
101 0 50 101 0 50 101 0 45 98 48 87 129 221 230 238 80 124 167 53
102 149 235 224 139 254 237 139 254 237 139 254 237 139 254 237 139
254 237 139 254 237 139 254 237 139 254 237 139 254 237 139 254 237
139 254 237 139 254 237 139 254 237 139 254 237 139 5 52 100 0 45 97
0 44 96 0 44 96 0 37 91 102 127 159 211 222 233 62 110 158 77 119
148 251 235 138 254 237 139 254 237 139 254 237 139 254 237 139 254
237 139 254 237 139 254 237 139 254 237 139 254 237 139 254 237 139
254 237 139 254 237 139 254 237 139 254 237 139 86 112 115 33 76 120
39 82 125 41 82 125 73 106 143 213 220 228 182 200 219 50 101 152
110 141 147 254 237 139 254 237 139 254 237 139 254 237 139 254 237
139 254 237 139 254 237 139 254 237 139 254 237 139 254 237 139 254
237 139 254 237 139 254 237 139 254 237 139 254 237 139 248 234 150
241 238 214 250 249 247 237 241 245 247 249 251 238 242 247 90 131
172 46 98 150 145 164 145 254 237 139 254 237 139 254 237 139 254
237 139 254 237 139 254 237 139 254 237 139 254 237 139 254 237 139
254 237 139 254 237 139 254 237 139 254 237 139 254 237 139 254 237
139 254 237 139 253 237 143 199 202 155 69 116 162 71 117 163 62 110
158 45 97 149 50 101 152 178 186 143 254 237 139 254 237 139 254 237
139 254 237 139 254 237 139 254 237 139 254 237 139 254 237 139 254
237 139 254 237 139 254 237 139 254 237 139 254 237 139 254 237 139
254 237 139 254 237 139 254 237 139 217 212 139 66 111 148 58 106
148 60 107 149 65 110 150 115 144 147 231 221 140 254 237 139 254
237 139 254 237 139 254 237 139 254 237 139 254 237 139 254 237 139
254 237 139 254 237 139 254 237 139 254 237 139 254 237 139 254 237
139 254 237 139 254 237 139
